<svg width="48" height="45" viewBox="0 0 48 45" fill="none" xmlns="http://www.w3.org/2000/svg">
<path d="M34.7164 26.9061L28.0992 23.4727L39.789 14.2439L46.4623 17.2798L34.7164 26.9061ZM39.2226 32.0241L27.6592 43.2421V24.4001L34.554 27.9772C34.7271 28.0674 34.9338 28.0449 35.0856 27.9199L39.2226 24.5298V32.0241ZM8.37364 24.0149L19.4551 30.1327C19.5285 30.174 19.6088 30.1938 19.689 30.1938C19.7985 30.1938 19.9079 30.1562 19.9974 30.0829L26.6631 24.6294V43.4827L8.37364 33.8329V24.0149ZM7.95157 14.5427L26.2265 23.67L19.636 29.0625L1.60532 19.1073L7.95157 14.5427ZM1.60288 10.2975L13.766 2.15954L19.7418 5.01221L7.86183 13.3541L1.60288 10.2975ZM20.2551 19.5414L8.90283 13.8708L20.2551 5.90014V19.5414ZM27.1023 22.9606L21.2512 20.0385V5.72066L38.7485 13.7666L27.1023 22.9606ZM26.4369 1.26599L44.6939 9.22354L39.6586 13.0543L21.7437 4.81676L26.4369 1.26599ZM47.916 17.0862C47.8937 16.9067 47.7818 16.7517 47.6218 16.6793L40.712 13.5354L45.9925 9.51764C46.1369 9.40771 46.2133 9.22541 46.1923 9.04031C46.1714 8.85521 46.0561 8.69642 45.8908 8.62501L26.5639 0.200447C26.4029 0.129978 26.2185 0.152523 26.0775 0.258698L20.6959 4.33004L13.9338 1.10156C13.7797 1.02827 13.5992 1.04139 13.4558 1.13723L0.308144 9.93388C0.155923 10.0354 0.0693538 10.2148 0.0810352 10.4027C0.0931693 10.5897 0.202105 10.756 0.366006 10.8359L6.91256 14.0325L0.36655 18.7409C0.223566 18.8433 0.142792 19.0152 0.153025 19.1956C0.163257 19.3751 0.262957 19.5367 0.416173 19.6213L7.37755 23.4652V34.1495C7.37755 34.344 7.48259 34.5226 7.64994 34.6109L27.0074 44.8235C27.079 44.8611 27.1563 44.8799 27.2332 44.8799C27.3567 44.8799 27.4788 44.832 27.5731 44.7408L40.0607 32.6264C40.1614 32.5287 40.2187 32.3915 40.2187 32.2487V23.7133L47.7308 17.5579C47.8679 17.4451 47.9379 17.2666 47.916 17.0862Z" fill="#3A98B2"/>
</svg>
