<svg width="50" height="52" viewBox="0 0 50 52" fill="none" xmlns="http://www.w3.org/2000/svg">
<g clip-path="url(#clip0_1_1570)">
<path d="M47.875 51H24.9583C24.3833 51 23.9166 50.5333 23.9166 49.9583V27.0417C23.9166 26.4667 24.3833 26 24.9583 26H47.875C48.45 26 48.9166 26.4667 48.9166 27.0417V49.9583C48.9166 50.5333 48.45 51 47.875 51ZM26 48.9167H46.8333V28.0833H26V48.9167Z" fill="#3A98B2"/>
<path d="M36.4167 28.0833H13.5C12.925 28.0833 12.4584 27.6166 12.4584 27.0416V4.12492C12.4584 3.54992 12.925 3.08325 13.5 3.08325H36.4167C36.9917 3.08325 37.4584 3.54992 37.4584 4.12492V27.0416C37.4584 27.6166 36.9917 28.0833 36.4167 28.0833ZM14.5417 25.9999H35.375V5.16659H14.5417V25.9999Z" fill="#3A98B2"/>
<path d="M28.0833 13.4999H21.8333C21.2583 13.4999 20.7916 13.0333 20.7916 12.4583V4.12492C20.7916 3.54992 21.2583 3.08325 21.8333 3.08325H28.0833C28.6583 3.08325 29.125 3.54992 29.125 4.12492V12.4583C29.125 13.0333 28.6583 13.4999 28.0833 13.4999ZM22.875 11.4166H27.0416V5.16659H22.875V11.4166Z" fill="#3A98B2"/>
<path d="M39.5417 36.4167H33.2917C32.7167 36.4167 32.25 35.95 32.25 35.375V27.0417C32.25 26.4667 32.7167 26 33.2917 26H39.5417C40.1167 26 40.5833 26.4667 40.5833 27.0417V35.375C40.5833 35.95 40.1167 36.4167 39.5417 36.4167ZM34.3333 34.3333H38.5V28.0833H34.3333V34.3333Z" fill="#3A98B2"/>
<path d="M24.9583 51H2.04167C1.46667 51 1 50.5333 1 49.9583V27.0417C1 26.4667 1.46667 26 2.04167 26H24.9583C25.5333 26 26 26.4667 26 27.0417V49.9583C26 50.5333 25.5333 51 24.9583 51ZM3.08333 48.9167H23.9167V28.0833H3.08333V48.9167Z" fill="#3A98B2"/>
<path d="M16.625 36.4167H10.375C9.80004 36.4167 9.33337 35.95 9.33337 35.375V27.0417C9.33337 26.4667 9.80004 26 10.375 26H16.625C17.2 26 17.6667 26.4667 17.6667 27.0417V35.375C17.6667 35.95 17.2 36.4167 16.625 36.4167ZM11.4167 34.3333H15.5834V28.0833H11.4167V34.3333Z" fill="#3A98B2"/>
</g>
<defs>
<clipPath id="clip0_1_1570">
<rect width="50" height="52" fill="white"/>
</clipPath>
</defs>
</svg>
