<svg width="48" height="29" viewBox="0 0 48 29" fill="none" xmlns="http://www.w3.org/2000/svg">
<path d="M47.0813 19.6134C47.0813 21.388 45.6491 22.8318 43.8895 22.8318H8.48041C8.47975 22.8318 8.47909 22.8318 8.47843 22.8318H4.11047C2.35082 22.8318 0.918703 21.388 0.918703 19.6134V7.32059C0.918703 6.7511 1.37818 6.28723 1.94373 6.28723H4.06803C4.71978 6.28723 5.09306 6.90016 5.09306 7.96962V13.4519V17.1182C5.09306 17.5834 6.03388 18.2699 6.87923 18.2699H41.1207C41.9661 18.2699 42.9069 17.5834 42.9069 17.1182V13.4519V7.96962C42.9069 6.90016 43.2802 6.28723 43.9319 6.28723H46.0562C46.6218 6.28723 47.0813 6.7511 47.0813 7.32059V19.6134ZM43.625 27.4224C43.4672 27.6082 43.2384 27.7145 42.9739 27.7145C42.6755 27.7145 42.3997 27.5514 42.2538 27.2894L40.2422 23.6773H43.3312L43.8126 26.7513C43.8504 26.992 43.7821 27.2373 43.625 27.4224ZM5.74613 27.2894C5.60027 27.5514 5.32446 27.7145 5.00356 27.7145C4.76155 27.7145 4.53281 27.6082 4.37502 27.4224C4.21788 27.2373 4.14959 26.992 4.18738 26.7513L4.66873 23.6773H7.75772L5.74613 27.2894ZM5.93178 3.3549C5.93178 2.23598 6.83547 1.32493 7.94536 1.32493H15.405C16.5149 1.32493 17.4179 2.23598 17.4179 3.3549V13.0295H5.93178V7.96962V3.3549ZM20.2702 1.32493H27.7298C28.8397 1.32493 29.7427 2.23598 29.7427 3.3549V13.0295H18.2573V3.3549C18.2573 2.23598 19.1603 1.32493 20.2702 1.32493ZM32.595 1.32493H40.0546C41.1645 1.32493 42.0682 2.23598 42.0682 3.3549V7.96962V13.0295H30.5821V3.3549C30.5821 2.23598 31.4851 1.32493 32.595 1.32493ZM5.93178 13.875H42.0682V16.9972C41.9343 17.1356 41.5524 17.4243 41.1207 17.4243H6.87923C6.4476 17.4243 6.06571 17.1356 5.93178 16.9972V13.875ZM46.0562 5.44168H43.9319C43.5792 5.44168 43.2172 5.54395 42.9069 5.7799V3.3549C42.9069 1.76943 41.6273 0.480061 40.0546 0.480061H32.595C31.5673 0.480061 30.6643 1.03083 30.1624 1.85565C29.6605 1.03083 28.7575 0.480061 27.7298 0.480061H20.2702C19.2425 0.480061 18.3395 1.03083 17.8376 1.85565C17.3357 1.03083 16.4326 0.480061 15.405 0.480061H7.94536C6.37269 0.480061 5.09306 1.76943 5.09306 3.3549V5.7799C4.78277 5.54395 4.42076 5.44168 4.06803 5.44168H1.94373C0.916055 5.44168 0.0799866 6.28455 0.0799866 7.32059V19.6134C0.0799866 21.7563 1.73356 23.5155 3.8214 23.6653L3.35861 26.6197C3.28236 27.1049 3.42093 27.5982 3.73785 27.9719C4.05478 28.3455 4.51557 28.5601 5.02609 28.5601C5.62745 28.5601 6.18372 28.2319 6.47744 27.7032L8.71977 23.6773H39.2802L41.5225 27.7032C41.8162 28.2319 42.3725 28.5601 42.9964 28.5601C43.4844 28.5601 43.9452 28.3455 44.2621 27.9719C44.579 27.5982 44.7176 27.1049 44.6414 26.6197L44.1786 23.6653C46.2664 23.5155 47.92 21.7563 47.92 19.6134V7.32059C47.92 6.28455 47.0839 5.44168 46.0562 5.44168Z" fill="#3A98B2"/>
</svg>
