<svg width="194" height="51" viewBox="0 0 194 51" fill="none" xmlns="http://www.w3.org/2000/svg">
<path fill-rule="evenodd" clip-rule="evenodd" d="M16.0143 14.7477C16.0143 15.696 16.0127 16.6445 16.0154 17.5928C16.0164 17.8907 16.0219 17.8983 16.2978 17.8993C17.3004 17.9028 18.303 17.8962 19.3056 17.9043C19.5185 17.9064 19.5836 17.8337 19.5828 17.6235C19.5765 15.7401 19.5802 13.8566 19.5778 11.9737C19.5773 11.6949 19.5697 11.6879 19.2752 11.6868C18.2862 11.6837 17.297 11.6834 16.308 11.6871C16.0225 11.6879 16.0164 11.6957 16.0154 11.9837C16.0127 12.9049 16.0143 13.8262 16.0143 14.7477ZM8.03802 11.581C8.58763 11.0826 9.1367 10.5831 9.68761 10.086C12.264 7.76113 14.8408 5.43648 17.4177 3.11184C17.8104 2.75751 17.8135 2.7541 18.2153 3.11446C18.8513 3.68453 19.4823 4.25986 20.1161 4.83203C20.2059 4.91287 20.2841 5.00919 20.4305 5.06615C20.514 4.81785 20.4521 4.56536 20.4754 4.32127C20.4954 4.10973 20.3778 3.84254 20.5384 3.70107C20.6757 3.58033 20.9287 3.66563 21.1303 3.66406C21.6998 3.65933 22.2691 3.66144 22.8387 3.66301C23.2255 3.66406 23.2268 3.66563 23.2271 4.06904C23.2279 5.08583 23.2439 6.10314 23.2187 7.11993C23.2098 7.49552 23.336 7.74355 23.6137 7.98738C24.8675 9.08684 26.1037 10.2063 27.3444 11.3201C27.442 11.4078 27.5265 11.5102 27.6667 11.6577H26.5846C26.2998 11.6577 26.015 11.6535 25.7305 11.6585C25.4166 11.6642 25.2822 11.7703 25.2279 12.0711C25.204 12.2028 25.2098 12.3409 25.21 12.4763C25.2142 13.8317 25.2053 15.1876 25.2331 16.5429C25.2436 17.0652 25.0258 17.3718 24.5699 17.5894C22.5185 18.5676 20.4865 19.5859 18.4673 20.6285C18.0148 20.8623 17.6154 20.8565 17.1626 20.625C15.1395 19.5883 13.1094 18.5655 11.0548 17.5925C10.5805 17.3676 10.3768 17.0269 10.3852 16.5004C10.4078 15.1311 10.4007 13.7613 10.4047 12.3921C10.4049 12.2973 10.4062 12.2018 10.3963 12.1075C10.3614 11.7755 10.2388 11.6611 9.89785 11.6585C9.29024 11.6543 8.68238 11.6577 8.07477 11.6577C8.06243 11.632 8.0501 11.6062 8.03802 11.581Z" fill="#ABD2D9"/>
<path fill-rule="evenodd" clip-rule="evenodd" d="M89.4201 39.6503C89.1369 39.6492 88.8983 39.6873 88.6787 39.803C88.2516 40.0285 88.0863 40.5043 88.2955 40.9324C88.4931 41.3358 88.7579 41.6936 89.0928 41.9946C89.3361 42.213 89.4343 42.2222 89.6986 42.035C90.0443 41.7909 90.3267 41.4823 90.5458 41.1206C90.8335 40.6453 90.6894 40.1143 90.2012 39.8424C89.9482 39.702 89.6718 39.6471 89.4201 39.6503ZM88.5949 48.778C89.2674 48.8182 89.8611 48.53 90.4296 48.1738C90.7813 47.9539 90.8049 47.8066 90.5427 47.4945C89.9327 46.7686 89.3201 46.0447 88.7031 45.325C88.3837 44.9523 88.2083 44.9216 87.7973 45.1969C87.1259 45.6476 86.7509 46.2877 86.7078 47.0961C86.67 47.8029 87.0414 48.3481 87.6963 48.6242C87.976 48.7428 88.2679 48.7843 88.5949 48.778ZM92.3634 45.8429C92.5112 45.5998 92.6445 45.382 92.7763 45.1641C93.0235 44.756 93.3847 44.6064 93.849 44.6909C94.1962 44.7544 94.5335 44.857 94.8571 44.9954C95.1203 45.1072 95.1881 45.2436 95.0991 45.5111C94.9374 45.9977 94.8043 46.4932 94.5114 46.9316C94.1707 47.442 94.2413 47.784 94.7295 48.1536C94.9883 48.3497 95.2715 48.5132 95.5327 48.7063C95.913 48.9872 95.9537 49.1701 95.7035 49.563C95.5153 49.8596 95.3143 50.1525 95.0867 50.4194C94.6749 50.9034 94.2702 50.9271 93.7826 50.5276C93.6781 50.4415 93.5831 50.3441 93.4818 50.2538C93.0127 49.8386 92.4868 49.7265 91.9007 49.9698C91.6889 50.058 91.4805 50.157 91.2763 50.2622C89.4377 51.2047 87.5942 51.0956 85.8231 50.1494C83.7895 49.0625 83.4598 46.4436 85.0661 44.6925C85.3052 44.4316 85.5703 44.1998 85.864 44.003C86.0887 43.8518 86.3157 43.703 86.5446 43.5586C86.9763 43.2867 86.9359 43.3489 86.6761 42.972C86.5454 42.7825 86.407 42.5975 86.2866 42.4014C85.9776 41.9006 85.7553 41.3697 85.7073 40.7723C85.6412 39.9531 85.9204 39.2841 86.5446 38.7589C87.0789 38.3088 87.7201 38.1007 88.3918 37.9705C89.5647 37.7427 90.6894 37.8505 91.7159 38.5046C92.5799 39.055 93.0563 39.8316 92.9818 40.8857C92.928 41.6455 92.565 42.2502 91.9936 42.7316C91.7038 42.9762 91.3834 43.1828 91.0868 43.419C90.8117 43.6379 90.8031 43.6878 90.939 44.0046C90.9978 44.1408 91.0681 44.2736 91.1474 44.3993C91.4831 44.9287 91.9248 45.367 92.3634 45.8429Z" fill="#F2B91D"/>
<path fill-rule="evenodd" clip-rule="evenodd" d="M17.848 21.8485C20.8952 20.3199 23.9175 18.8036 26.8765 17.3194C26.9521 17.2399 26.9468 17.2183 26.9119 17.2034C26.3006 16.9396 26.1001 16.4464 26.1418 15.8199C26.1964 14.9937 26.1767 14.1667 26.1636 13.3399C26.1623 13.2585 26.1552 13.1774 26.1568 13.0961C26.1647 12.6494 26.3363 12.5079 26.7683 12.5832C27.2111 12.6601 27.629 12.7969 28.0321 13.0047C29.2476 13.6304 30.4733 14.2365 31.7693 14.8877C30.2171 15.6753 28.7198 16.4351 27.1623 17.2257C28.7087 18.0068 30.1904 18.7556 31.7019 19.5191C31.5512 19.6724 31.3877 19.738 31.2355 19.8149C29.2652 20.8078 27.2935 21.7976 25.3227 22.7889C24.609 23.1474 23.8907 23.4973 23.1868 23.8737C22.7009 24.1332 22.249 24.1261 21.76 23.8716C20.5954 23.2647 19.4172 22.6842 18.2451 22.092C18.1251 22.0312 17.9939 21.9899 17.848 21.8485Z" fill="#F2B91D"/>
<path fill-rule="evenodd" clip-rule="evenodd" d="M3.84766 19.559C5.41851 18.7648 6.91403 18.0089 8.46598 17.2241C6.91167 16.4375 5.40722 15.6766 3.85527 14.8916C5.41194 14.1089 6.88621 13.3103 8.41559 12.6218C8.48908 12.5885 8.56703 12.5641 8.64525 12.5436C9.10561 12.425 9.34051 12.5733 9.43028 13.037C9.43815 13.0772 9.4476 13.1171 9.4497 13.1573C9.50534 14.2407 9.48986 15.3255 9.46204 16.4087C9.45101 16.8341 9.33106 16.9394 8.77831 17.3289C11.74 18.8165 14.6893 20.2979 17.653 21.7863C17.5782 22.006 17.3801 22.0553 17.2213 22.1335C16.5286 22.4745 15.8302 22.8031 15.1334 23.1356C14.7911 23.2989 14.4397 23.4445 14.1066 23.6249C13.4237 23.9939 12.7523 23.9146 12.0783 23.6131C10.5696 22.9372 9.12949 22.1249 7.64736 21.3968C6.4933 20.8296 5.33058 20.2795 4.17206 19.7218C4.08729 19.6813 4.00409 19.6378 3.84766 19.559Z" fill="#F2B91D"/>
<path fill-rule="evenodd" clip-rule="evenodd" d="M17.5041 31.0146C17.3435 30.9393 17.2209 30.885 17.1012 30.8249C14.4509 29.5029 11.8005 28.1798 9.15012 26.8567C9.07768 26.8199 9.0076 26.7777 8.93359 26.7449C8.62388 26.6087 8.49343 26.3709 8.49895 26.0354C8.50918 25.4126 8.50708 24.7895 8.5084 24.1664C8.50945 23.5987 8.50866 23.0307 8.50866 22.4691C8.6517 22.4242 8.73648 22.5063 8.82939 22.552C10.0404 23.1538 11.2582 23.7433 12.458 24.3667C12.9519 24.6236 13.3871 24.6129 13.8768 24.3559C14.9545 23.7903 16.0514 23.2614 17.1422 22.7216C17.2482 22.6691 17.3474 22.5911 17.5041 22.5882V31.0146Z" fill="#F2B91D"/>
<path fill-rule="evenodd" clip-rule="evenodd" d="M18.1492 22.6139C18.2914 22.5913 18.3909 22.6727 18.4967 22.7249C19.5995 23.2719 20.7082 23.8084 21.7998 24.3769C22.2651 24.6189 22.6809 24.6189 23.1447 24.379C24.3341 23.7633 25.5375 23.1748 26.736 22.5764C26.8433 22.5226 26.9546 22.4766 27.0601 22.4289C27.1785 22.5011 27.1302 22.606 27.1304 22.6906C27.136 23.7879 27.1307 24.8853 27.1417 25.9829C27.1457 26.3685 26.9848 26.6068 26.6381 26.7782C24.4071 27.8813 22.1825 28.9973 19.9557 30.1096C19.4838 30.3451 19.0145 30.586 18.5408 30.8175C18.4229 30.875 18.3161 30.9713 18.1492 30.96V22.6139Z" fill="#F2B91D"/>
<path fill-rule="evenodd" clip-rule="evenodd" d="M18.1492 22.6143V30.9604C18.3161 30.9717 18.423 30.8754 18.5408 30.8179C19.0145 30.5864 19.4838 30.3454 19.9557 30.11C22.1825 28.9977 24.4071 27.8817 26.6381 26.7785C26.9848 26.6072 27.1457 26.3688 27.1418 25.9833C27.1307 24.8857 27.136 23.7883 27.1305 22.6909C27.1302 22.6064 27.1785 22.5014 27.0601 22.4292C26.9546 22.477 26.8433 22.5229 26.736 22.5768C25.5376 23.1752 24.3342 23.7636 23.1447 24.3794C22.6809 24.6193 22.2652 24.6193 21.7998 24.3773C20.7082 23.8088 19.5996 23.2723 18.4967 22.7253C18.3909 22.6731 18.2915 22.5917 18.1492 22.6143ZM17.5041 31.0147V22.5883C17.3474 22.5912 17.2482 22.6691 17.1421 22.7216C16.0513 23.2618 14.9545 23.7904 13.8768 24.3563C13.387 24.613 12.9519 24.6237 12.4579 24.367C11.2582 23.7437 10.0404 23.1542 8.82935 22.5523C8.73643 22.5067 8.65166 22.4243 8.50862 22.4691C8.50862 23.0308 8.5094 23.5988 8.50835 24.1665C8.50704 24.7896 8.50914 25.4127 8.4989 26.0358C8.49339 26.3709 8.62384 26.6087 8.93355 26.7452C9.00756 26.778 9.07764 26.82 9.15008 26.857C11.8004 28.1801 14.4508 29.5032 17.1012 30.8252C17.2209 30.8851 17.3434 30.9394 17.5041 31.0147ZM3.84751 19.5592C4.00367 19.6379 4.08714 19.6815 4.17191 19.7219C5.33043 20.2797 6.49289 20.8298 7.64694 21.397C9.12934 22.1253 10.5695 22.9374 12.0781 23.6135C12.7521 23.9148 13.4235 23.9943 14.1065 23.6253C14.4395 23.4447 14.791 23.2991 15.1332 23.1358C15.8301 22.8035 16.5285 22.4749 17.2209 22.1337C17.3797 22.0555 17.5781 22.0064 17.6526 21.7867C14.6891 20.2983 11.7398 18.8167 8.7779 17.329C9.33065 16.9395 9.4506 16.8346 9.46163 16.4088C9.48971 15.3256 9.50493 14.2411 9.44955 13.1577C9.44745 13.1173 9.438 13.0774 9.43013 13.0375C9.34037 12.5734 9.10546 12.4254 8.6451 12.544C8.56688 12.5643 8.48867 12.5889 8.41544 12.6223C6.8858 13.3107 5.4118 14.1094 3.85512 14.8918C5.40707 15.6768 6.91152 16.438 8.46583 17.2246C6.91362 18.0091 5.41836 18.765 3.84751 19.5592ZM17.8476 21.8489C17.9933 21.9904 18.1245 22.0316 18.2445 22.0925C19.4169 22.6846 20.5948 23.2649 21.7597 23.872C22.2486 24.1266 22.7003 24.1337 23.1862 23.8741C23.8904 23.4977 24.6087 23.1479 25.3221 22.7893C27.2929 21.798 29.2648 20.8083 31.2349 19.8154C31.3874 19.7385 31.5509 19.6728 31.7013 19.5196C30.19 18.7561 28.7084 18.0072 27.162 17.2262C28.7194 16.4356 30.2168 15.6758 31.7687 14.8881C30.473 14.2369 29.247 13.6309 28.0318 13.0052C27.6284 12.7973 27.2108 12.6606 26.7678 12.5837C26.336 12.5084 26.1643 12.6498 26.1562 13.0965C26.1549 13.1779 26.162 13.259 26.1633 13.3404C26.1764 14.1671 26.1961 14.9942 26.1412 15.8204C26.0998 16.4469 26.3003 16.9401 26.9116 17.2038C26.9465 17.2188 26.9517 17.2403 26.8761 17.3199C23.9171 18.8041 20.8948 20.3203 17.8476 21.8489ZM8.03828 11.5813C8.05035 11.6068 8.06269 11.6322 8.07502 11.658C8.68263 11.658 9.2905 11.6546 9.8981 11.659C10.239 11.6616 10.3616 11.7758 10.3965 12.1081C10.4065 12.2021 10.4052 12.2976 10.4049 12.3926C10.401 13.7616 10.4078 15.1314 10.3855 16.5007C10.3771 17.0272 10.5808 17.3681 11.055 17.5928C13.1096 18.5658 15.1398 19.5889 17.1626 20.6253C17.6153 20.8571 18.0148 20.8626 18.4676 20.629C20.4867 19.5862 22.5184 18.5679 24.5701 17.5897C25.026 17.3721 25.2436 17.0655 25.2331 16.5432C25.2056 15.1879 25.2142 13.832 25.2103 12.4766C25.2098 12.3412 25.204 12.2031 25.2279 12.0713C25.2825 11.7708 25.4168 11.6645 25.7305 11.659C26.0153 11.6538 26.3 11.658 26.5848 11.658H27.667C27.5268 11.5105 27.442 11.4084 27.3446 11.3207C26.104 10.2068 24.8678 9.08713 23.614 7.98766C23.336 7.74409 23.2098 7.4958 23.219 7.12022C23.2442 6.10369 23.2282 5.08638 23.2274 4.06933C23.2271 3.66592 23.2258 3.66435 22.8389 3.6633C22.2694 3.66172 21.6998 3.65989 21.1303 3.66461C20.929 3.66619 20.6759 3.58062 20.5387 3.70135C20.3778 3.84282 20.4956 4.11028 20.4757 4.32182C20.4523 4.56565 20.5143 4.81814 20.4308 5.06643C20.2841 5.00974 20.2059 4.91342 20.1164 4.83232C19.4825 4.26014 18.8513 3.68482 18.2156 3.11475C17.8138 2.75438 17.8106 2.7578 17.418 3.11212C14.8411 5.43677 12.2642 7.76142 9.68761 10.0866C9.13696 10.5834 8.58788 11.0829 8.03828 11.5813ZM0.887695 16.8944C0.933889 7.54882 8.59339 0.0943031 17.5944 0.00112915C26.9365 -0.095459 34.7511 7.60893 34.7469 16.9101C34.743 25.745 27.541 33.8394 17.8671 33.8496C8.47318 33.8588 0.942813 26.2812 0.887695 16.8944Z" fill="#142B35"/>
<path fill-rule="evenodd" clip-rule="evenodd" d="M144.851 18.8181C144.924 18.6572 144.895 18.521 144.895 18.3895C144.901 15.2313 144.905 12.0728 144.907 8.91452C144.908 8.41268 144.891 7.91138 144.891 7.41007C144.891 6.85889 145.046 6.70063 145.585 6.69984C147.089 6.69748 148.594 6.69905 150.098 6.69958C150.193 6.69958 150.29 6.69538 150.382 6.71296C150.643 6.76231 150.753 6.88278 150.764 7.20508C150.782 7.73316 150.774 8.26203 150.774 8.79063C150.775 8.98039 150.763 9.16963 150.762 9.35939C150.762 14.7546 150.762 20.1498 150.763 25.5448C150.763 26.4939 150.773 27.4427 150.777 28.391C150.778 28.4991 150.781 28.6083 150.773 28.7164C150.742 29.1245 150.628 29.2508 150.218 29.2542C149.446 29.2605 148.673 29.2408 147.901 29.2424C147.224 29.2429 146.543 29.224 145.869 29.2747C145.21 29.3245 144.772 29.0923 144.432 28.5201C142.346 25.0196 140.24 21.5309 138.141 18.0378C138.003 17.8094 137.88 17.5688 137.609 17.4144C137.532 17.5724 137.567 17.721 137.567 17.8606C137.567 21.29 137.571 24.7193 137.573 28.149C137.573 28.2576 137.569 28.3663 137.574 28.4747C137.596 28.9681 137.546 29.3127 136.753 29.2763C135.669 29.2266 134.585 29.2316 133.501 29.2455C133.135 29.2497 132.77 29.2686 132.405 29.2736C132.284 29.2757 132.162 29.2574 132.042 29.2429C131.816 29.2175 131.711 29.0755 131.694 28.8616C131.682 28.7135 131.681 28.5637 131.681 28.4151C131.684 23.8466 131.687 19.2785 131.689 14.7105C131.689 12.2974 131.683 9.88458 131.681 7.47175C131.68 6.78619 131.771 6.69223 132.45 6.7001C133.819 6.71611 135.188 6.75181 136.556 6.68882C137.223 6.65811 137.655 6.93842 137.982 7.4917C139 9.21688 140.03 10.9355 141.06 12.6541C142.23 14.6045 143.403 16.5525 144.579 18.4992C144.645 18.6079 144.68 18.7499 144.851 18.8181Z" fill="#142B35"/>
<path fill-rule="evenodd" clip-rule="evenodd" d="M176.289 17.978C176.289 14.521 176.289 11.0641 176.29 7.60746C176.29 6.82426 176.425 6.69697 177.215 6.69723C182.122 6.69907 187.03 6.69855 191.937 6.69907C192.776 6.69933 192.912 6.82925 192.873 7.66756C192.827 8.64314 192.816 9.61715 192.875 10.5919C192.878 10.646 192.879 10.7001 192.88 10.7547C192.893 11.3901 192.733 11.561 192.108 11.5641C191.579 11.5665 191.05 11.5583 190.522 11.5573C188.15 11.5523 185.778 11.5476 183.406 11.545C183.243 11.5444 183.079 11.5471 182.92 11.5728C182.673 11.6121 182.572 11.7274 182.542 11.977C182.53 12.0701 182.533 12.1662 182.538 12.2607C182.578 12.9518 182.574 13.6423 182.54 14.3334C182.536 14.4147 182.531 14.4961 182.535 14.5772C182.555 14.9255 182.676 15.0704 183.033 15.0866C183.492 15.1076 183.954 15.094 184.414 15.0929C186.719 15.0887 189.023 15.0838 191.328 15.0796C191.449 15.0793 191.57 15.0801 191.69 15.1166C191.923 15.1877 192.063 15.3352 192.076 15.5809C192.085 15.7562 192.081 15.9331 192.076 16.1089C192.049 17.0307 192.052 17.952 192.078 18.8735C192.082 19.0092 192.09 19.1454 192.079 19.28C192.055 19.5598 191.966 19.6525 191.696 19.7302C191.469 19.7958 191.238 19.7737 191.009 19.7735C189.179 19.7709 187.349 19.768 185.519 19.7598C184.815 19.7567 184.11 19.7386 183.406 19.727C183.352 19.7265 183.297 19.7241 183.243 19.7265C182.672 19.7504 182.527 19.8968 182.541 20.4724C182.565 21.4616 182.581 22.4506 182.532 23.4398C182.506 23.9653 182.652 24.1249 183.183 24.1495C183.547 24.1663 183.914 24.1385 184.279 24.1372C186.909 24.1293 189.538 24.1225 192.168 24.1167C192.994 24.1152 193.148 24.2729 193.106 25.0931C193.051 26.1632 193.052 27.233 193.103 28.3028C193.108 28.4248 193.108 28.5474 193.103 28.6694C193.085 29.1099 192.961 29.2553 192.516 29.2734C192.042 29.2928 191.567 29.2763 191.092 29.2739C190.971 29.2729 190.849 29.2595 190.728 29.2595C187.718 29.2537 184.709 29.2445 181.699 29.2461C180.195 29.2471 178.691 29.2713 177.187 29.2794C176.408 29.2836 176.29 29.1631 176.29 28.3891C176.289 24.9186 176.289 21.4483 176.289 17.978Z" fill="#142B35"/>
<path fill-rule="evenodd" clip-rule="evenodd" d="M49.5701 12.8566C49.5426 12.854 49.5147 12.8519 49.4872 12.8495C49.351 13.3529 49.2139 13.8563 49.079 14.3603C48.568 16.2666 48.0562 18.1731 47.5468 20.0802C47.419 20.5597 47.4693 20.6266 47.9699 20.6253C49.0129 20.6229 50.0562 20.608 51.0992 20.6345C51.5396 20.6458 51.6352 20.5143 51.5407 20.0933C51.5171 19.9878 51.4837 19.8844 51.4546 19.7804C51.2192 18.9337 50.9793 18.0886 50.7491 17.24C50.3528 15.7802 49.9628 14.3178 49.5701 12.8566ZM38.7778 29.2095C39.0676 28.3242 39.3476 27.4651 39.6308 26.6063C41.7114 20.2993 43.7925 13.9926 45.8738 7.68633C45.9079 7.58318 45.9434 7.48134 45.9814 7.38003C46.1602 6.90654 46.4943 6.67505 47.009 6.68686C47.9168 6.70733 48.8252 6.72046 49.7331 6.72282C50.5465 6.72466 51.3596 6.7055 52.1727 6.6992C52.873 6.69342 53.0328 6.80812 53.2559 7.48528C54.047 9.88735 54.8307 12.2918 55.6254 14.6923C57.1346 19.2495 58.6498 23.8045 60.1621 28.3607C60.1837 28.4247 60.2015 28.4903 60.2212 28.5549C60.3963 29.1352 60.2726 29.2945 59.6579 29.2761C57.9913 29.2276 56.3249 29.2244 54.6585 29.2788C54.0879 29.2977 53.8916 29.1439 53.7449 28.5785C53.5307 27.7536 53.3157 26.9294 53.1016 26.104C52.9961 25.6969 52.8491 25.5754 52.4081 25.5751C51.1202 25.5738 49.8326 25.5809 48.5444 25.5819C47.921 25.5825 47.2972 25.5738 46.6738 25.5746C46.1544 25.5751 46.0127 25.6948 45.8843 26.1998C45.6712 27.0391 45.4547 27.8772 45.2352 28.7142C45.1216 29.1486 44.9996 29.2557 44.556 29.2557C42.6715 29.2557 40.7873 29.2475 38.903 29.2407C38.877 29.2402 38.8511 29.2278 38.7778 29.2095Z" fill="#142B35"/>
<path fill-rule="evenodd" clip-rule="evenodd" d="M116.754 20.6114C116.868 20.6182 116.934 20.6259 117 20.6259C118.178 20.6266 119.356 20.6264 120.534 20.6261C120.602 20.6261 120.67 20.6222 120.737 20.6188C120.912 20.6104 120.974 20.5075 120.952 20.3471C120.941 20.2676 120.912 20.1904 120.891 20.1125C120.275 17.8579 119.66 15.6025 119.04 13.3493C119.008 13.2328 119.048 13.0241 118.866 13.0312C118.701 13.0377 118.728 13.2409 118.695 13.3595C118.311 14.7674 117.935 16.1768 117.558 17.5868C117.293 18.5781 117.031 19.5705 116.754 20.6114ZM108.118 29.2014C108.427 28.2683 108.739 27.3329 109.048 26.3967C111.123 20.1164 113.197 13.8359 115.272 7.55564C115.301 7.46562 115.33 7.37507 115.365 7.28688C115.521 6.89135 115.807 6.68689 116.24 6.6945C116.809 6.70421 117.379 6.71235 117.948 6.71235C119.141 6.71287 120.334 6.70683 121.527 6.70526C122.24 6.70421 122.345 6.78059 122.572 7.46641C124.368 12.8834 126.163 18.3007 127.959 23.7174C128.507 25.3733 129.059 27.0279 129.609 28.683C129.795 29.2439 129.795 29.2439 129.212 29.2439C127.422 29.2444 125.632 29.2444 123.842 29.2444C123.311 29.2444 123.281 29.2187 123.142 28.7168C122.905 27.8562 122.651 26.9995 122.445 26.1308C122.338 25.6814 122.198 25.5754 121.735 25.5749C119.81 25.5723 117.885 25.572 115.96 25.5749C115.485 25.5759 115.373 25.6786 115.258 26.1329C115.042 26.9854 114.822 27.8363 114.599 28.6867C114.474 29.1609 114.351 29.2583 113.859 29.2578C112.584 29.2557 111.31 29.247 110.036 29.2455C109.534 29.2444 109.032 29.2567 108.531 29.2567C108.4 29.2562 108.262 29.2932 108.118 29.2014Z" fill="#142B35"/>
<path fill-rule="evenodd" clip-rule="evenodd" d="M160.263 17.8747C160.278 19.2645 160.323 20.4828 160.673 21.6655C160.879 22.3623 161.184 23.0046 161.719 23.518C162.26 24.0374 162.909 24.3101 163.651 24.3516C164.096 24.3762 164.541 24.3781 164.986 24.2878C165.743 24.134 166.331 23.7387 166.776 23.1198C167.175 22.5652 167.447 21.9471 167.671 21.3051C167.755 21.0624 167.825 20.8135 167.925 20.5779C168.076 20.224 168.264 20.1256 168.638 20.2288C169.068 20.3477 169.49 20.4939 169.912 20.6382C170.934 20.9876 171.955 21.3427 172.976 21.6962C173.349 21.8253 173.428 21.9301 173.342 22.2912C172.936 24.0114 172.282 25.618 171.121 26.9807C169.949 28.3539 168.463 29.1707 166.688 29.4791C165.399 29.7032 164.106 29.7827 162.804 29.6289C161.671 29.4951 160.561 29.2562 159.51 28.8051C157.921 28.1227 156.737 26.9833 155.876 25.4998C155.051 24.0791 154.556 22.5345 154.25 20.9314C153.662 17.8459 153.973 14.8396 155.114 11.9155C156.235 9.0386 158.329 7.29216 161.323 6.62576C163.351 6.17406 165.379 6.18508 167.394 6.73967C169.359 7.28061 170.837 8.45173 171.885 10.1856C172.399 11.0357 172.778 11.9462 173.09 12.8853C173.229 13.3034 173.161 13.4236 172.743 13.5246C171.258 13.8819 169.777 14.2527 168.306 14.6627C168.267 14.6737 168.226 14.6784 168.186 14.6868C167.829 14.7637 167.686 14.6839 167.6 14.3254C167.441 13.6616 167.102 13.0984 166.641 12.6086C165.923 11.8472 165.014 11.5677 163.993 11.6207C162.388 11.7044 161.443 12.6659 160.834 14.048C160.542 14.7112 160.435 15.4228 160.347 16.1364C160.269 16.7698 160.234 17.4052 160.263 17.8747Z" fill="#142B35"/>
<path fill-rule="evenodd" clip-rule="evenodd" d="M62.2881 18.0417C62.2881 14.5585 62.2887 11.0748 62.2881 7.59136C62.2881 6.81315 62.4076 6.6856 63.1748 6.69977C64.6653 6.72733 66.1558 6.7352 67.6464 6.69636C67.66 6.6961 67.6734 6.69584 67.6868 6.69557C68.3931 6.69059 68.5566 6.84806 68.5584 7.54307C68.5603 8.30186 68.5592 9.0609 68.5587 9.82021C68.5566 12.2735 68.5571 14.7267 68.5513 17.1802C68.5469 19.0506 68.5338 20.9204 68.5264 22.7907C68.5238 23.4991 68.7198 23.7035 69.4138 23.681C71.0941 23.6256 72.7744 23.6581 74.4547 23.6482C75.3899 23.6432 76.325 23.6379 77.2602 23.634C77.3549 23.6335 77.451 23.6303 77.5444 23.6426C77.9418 23.6959 78.094 23.8503 78.1019 24.2547C78.1113 24.7287 78.0911 25.203 78.0914 25.6773C78.0925 26.6263 78.098 27.5746 78.1019 28.5234C78.1022 28.6182 78.1071 28.7137 78.0985 28.8079C78.0709 29.1135 77.9851 29.193 77.6757 29.2533C77.4717 29.293 77.2702 29.2581 77.0683 29.2575C73.9778 29.2544 70.8875 29.2447 67.7973 29.2463C66.2661 29.2473 64.7348 29.2688 63.2036 29.2806C63.1359 29.2812 63.0685 29.2817 63.0005 29.2806C62.3884 29.2733 62.2968 29.1833 62.2965 28.5736C62.2958 25.0631 62.2963 21.5524 62.2963 18.0417H62.2881Z" fill="#142B35"/>
<path fill-rule="evenodd" clip-rule="evenodd" d="M80.8306 18.0067C80.8306 14.8757 80.8308 11.7448 80.8298 8.61386C80.8298 8.20756 80.8072 7.80048 80.8251 7.39497C80.8492 6.85036 81.0169 6.68737 81.55 6.69787C83.1355 6.72884 84.7206 6.72831 86.3061 6.69839C86.8331 6.68868 87.0224 6.87687 87.03 7.39917C87.0392 7.99523 87.0284 8.59181 87.0279 9.18813C87.0255 13.2676 87.0234 17.3476 87.0208 21.4274C87.0203 21.9287 87.0029 22.4303 87.0163 22.9313C87.031 23.4662 87.1903 23.63 87.7226 23.6712C87.9777 23.6911 88.2368 23.6699 88.494 23.6686C90.1068 23.6615 91.7192 23.6552 93.332 23.6478C94.1315 23.6442 94.9312 23.6402 95.7309 23.6358C95.812 23.6355 95.8937 23.63 95.9742 23.6352C96.4262 23.6673 96.5837 23.814 96.5761 24.2733C96.5527 25.737 96.5627 27.2 96.5724 28.6641C96.575 29.1039 96.4388 29.2449 95.9921 29.2719C95.6273 29.294 95.2603 29.2853 94.8945 29.2793C91.9265 29.2294 88.9588 29.2438 85.9909 29.2459C84.5544 29.2475 83.1185 29.2709 81.682 29.2793C80.9159 29.2837 80.8125 29.1787 80.8143 28.4155C80.8211 25.7318 80.8308 23.0486 80.8382 20.3649C80.8405 19.5788 80.8384 18.7928 80.8384 18.0067H80.8306Z" fill="#142B35"/>
<path fill-rule="evenodd" clip-rule="evenodd" d="M105.761 17.977C105.761 21.4345 105.76 24.8919 105.762 28.3494C105.762 29.169 105.632 29.2835 104.819 29.2643C103.369 29.2302 101.919 29.2013 100.469 29.2782C99.7177 29.3181 99.5429 29.1507 99.5439 28.416C99.5502 23.6841 99.5568 18.9523 99.5583 14.2204C99.5591 12.0918 99.5489 9.96319 99.5439 7.8346C99.5436 7.68579 99.54 7.53618 99.5486 7.38737C99.577 6.89131 99.7641 6.70312 100.257 6.69787C100.718 6.69288 101.179 6.70259 101.639 6.71467C102.67 6.74091 103.7 6.71152 104.73 6.69997C104.906 6.69787 105.083 6.68895 105.259 6.70469C105.57 6.73278 105.716 6.88343 105.746 7.19839C105.759 7.33251 105.753 7.46899 105.753 7.60468C105.754 11.0621 105.754 14.5196 105.754 17.977H105.761Z" fill="#142B35"/>
<path fill-rule="evenodd" clip-rule="evenodd" d="M12.2264 46.2287C12.4002 46.0851 12.4319 45.8765 12.4839 45.6859C13.0939 43.4534 13.7007 41.2203 14.3017 38.9857C14.5269 38.1487 14.6001 38.0826 15.4715 38.1036C16.2308 38.1214 16.9896 38.1154 17.7489 38.0965C18.3292 38.082 18.4773 38.2128 18.4865 38.7967C18.4972 39.5148 18.477 40.2335 18.4754 40.9518C18.4699 43.4599 18.4665 45.9683 18.4613 48.477C18.4605 48.9108 18.4655 49.3449 18.4484 49.778C18.4235 50.4205 18.2151 50.6189 17.5731 50.6292C17.2342 50.6352 16.8951 50.6352 16.5566 50.6218C16.1148 50.605 15.9846 50.4604 15.9852 50.0166C15.9886 47.4539 15.9925 44.8912 15.9962 42.3293C15.9962 42.1964 15.9962 42.0642 15.9962 41.9027C15.8744 42.0035 15.8602 42.124 15.8253 42.2348C15.1232 44.4555 14.5647 46.7153 13.9739 48.9667C13.8813 49.3197 13.791 49.6735 13.6527 50.0134C13.4852 50.4244 13.1786 50.625 12.7408 50.6292C12.3884 50.6321 12.0356 50.6347 11.6834 50.626C11.2781 50.6163 10.9905 50.4179 10.8267 50.0478C10.6679 49.6874 10.5755 49.3056 10.4747 48.9255C9.88497 46.703 9.32277 44.472 8.61753 42.2815C8.58079 42.1676 8.54351 42.0539 8.501 41.9227C8.38945 42.0453 8.44168 42.1783 8.44168 42.2954C8.43984 44.8578 8.44247 47.4205 8.44457 49.9832C8.44509 50.4706 8.31701 50.6095 7.82462 50.6229C7.45849 50.6331 7.09209 50.6384 6.72647 50.6265C6.21257 50.61 6.01966 50.4378 5.94669 49.9305C5.91808 49.73 5.92123 49.5245 5.92097 49.3218C5.91729 46.1216 5.91572 42.9216 5.91283 39.7219C5.91257 39.4101 5.90155 39.098 5.90706 38.7865C5.91756 38.2256 6.0585 38.0826 6.61046 38.0965C7.49156 38.1185 8.37239 38.1185 9.25348 38.097C9.75873 38.0847 9.93195 38.2091 10.07 38.7012C10.348 39.6912 10.6094 40.6857 10.8839 41.6765C11.2561 43.0195 11.6361 44.3597 12.0075 45.7027C12.0582 45.8867 12.1235 46.0599 12.2264 46.2287Z" fill="#142B35"/>
<path fill-rule="evenodd" clip-rule="evenodd" d="M144.119 43.4057V43.3889C144.471 43.3889 144.823 43.3981 145.174 43.3868C145.634 43.3718 146.093 43.3346 146.54 43.2267C147.295 43.0437 147.678 42.5151 147.656 41.7104C147.636 41.001 147.184 40.4976 146.432 40.3724C145.71 40.253 144.979 40.2335 144.25 40.218C143.926 40.2115 143.602 40.2228 143.279 40.2705C142.639 40.3648 142.486 40.5359 142.427 41.1802C142.371 41.7873 142.44 42.3952 142.393 43.0028C142.372 43.2797 142.494 43.396 142.781 43.4031C143.227 43.4138 143.673 43.4057 144.119 43.4057ZM147.235 45.1198C147.368 45.2988 147.529 45.3778 147.664 45.4876C148.343 46.0395 148.903 46.6993 149.404 47.4114C150.113 48.4198 150.72 49.4956 151.443 50.4954C151.455 50.5122 151.444 50.5455 151.444 50.6179H151.147C150.334 50.6179 149.52 50.6069 148.707 50.6229C148.369 50.63 148.161 50.4959 147.972 50.2227C147.1 48.9642 146.219 47.7111 145.322 46.4713C144.709 45.6238 143.831 45.3469 142.822 45.4151C142.535 45.4345 142.448 45.533 142.42 45.8222C142.412 45.9164 142.416 46.012 142.416 46.1067C142.42 47.3678 142.424 48.6287 142.428 49.8893C142.428 49.971 142.434 50.0523 142.428 50.1334C142.404 50.4466 142.288 50.5993 141.985 50.6116C141.485 50.6326 140.981 50.6434 140.482 50.6067C139.997 50.5707 139.802 50.3405 139.754 49.8392C139.722 49.5025 139.704 49.1631 139.703 48.8245C139.699 45.9366 139.701 43.0485 139.7 40.1608C139.7 39.7404 139.692 39.3202 139.691 38.9002C139.69 38.7921 139.691 38.6818 139.708 38.5763C139.764 38.2312 139.899 38.1086 140.249 38.0979C140.506 38.0902 140.765 38.1042 141.022 38.1036C142.459 38.1036 143.896 38.0973 145.333 38.1021C146.174 38.1052 147.015 38.1435 147.836 38.3393C149.968 38.8485 151.043 41.0251 150.164 43.0406C149.853 43.7558 149.31 44.2479 148.631 44.6051C148.197 44.8327 147.728 44.9639 147.235 45.1198Z" fill="#142B35"/>
<path fill-rule="evenodd" clip-rule="evenodd" d="M54.9601 42.8916C54.8607 42.9921 54.831 43.132 54.8391 43.2826C54.9213 44.7997 54.8213 46.317 54.8525 47.8338C54.867 48.5382 54.8696 49.2424 54.8698 49.9469C54.8704 50.5025 54.7575 50.6169 54.209 50.6261C53.8567 50.6322 53.5037 50.639 53.152 50.623C52.6313 50.5983 52.4163 50.3902 52.3749 49.876C52.3491 49.5521 52.3381 49.2261 52.3386 48.9015C52.3407 47.0991 52.3541 45.2968 52.3518 43.4939C52.3494 42.017 52.3279 40.5407 52.3197 39.0638C52.3161 38.2948 52.4174 38.1774 53.1741 38.0672C54.1533 37.9236 54.9656 38.2165 55.5701 39.0176C55.7244 39.2223 55.8662 39.4386 55.995 39.6604C57.2136 41.7567 58.5814 43.7585 59.8895 45.7981C59.926 45.8551 59.9624 45.9146 60.011 45.9595C60.0895 46.032 60.1645 46.0144 60.1808 45.9062C60.1966 45.8002 60.1871 45.69 60.1868 45.5818C60.1847 43.3863 60.1819 41.1908 60.1808 38.995C60.1803 38.2165 60.3294 38.0698 61.1107 38.094C61.4485 38.1047 61.786 38.0877 62.123 38.1522C62.4506 38.2155 62.617 38.399 62.6711 38.7168C62.7102 38.9459 62.7055 39.1756 62.7055 39.4058C62.7068 41.7771 62.7055 44.1496 62.7068 46.5214C62.7073 47.5918 62.7128 48.6621 62.7157 49.733C62.7157 49.828 62.7167 49.9233 62.7094 50.0175C62.6842 50.3553 62.5692 50.5198 62.2393 50.5907C61.1577 50.8209 60.1449 50.6676 59.3756 49.6532C59.195 49.4149 59.0407 49.1611 58.8921 48.902C57.7252 46.869 56.3806 44.9493 55.1042 42.9853C55.0767 42.9427 55.053 42.89 54.9601 42.8916Z" fill="#142B35"/>
<path fill-rule="evenodd" clip-rule="evenodd" d="M74.429 43.8772H76.5841C77.1095 43.8772 77.236 43.9901 77.2248 44.5232C77.2027 45.5667 77.1982 46.61 77.2122 47.6538C77.2153 47.8977 77.2263 48.1412 77.2263 48.3853C77.2255 48.7667 77.066 49.0588 76.7381 49.2648C75.1474 50.2661 73.4361 50.8814 71.5364 50.8583C70.3865 50.8443 69.2797 50.5921 68.2338 50.1134C66.8745 49.4906 65.9165 48.4714 65.4233 47.0607C64.8398 45.3906 64.7674 43.6859 65.312 41.9922C65.9516 40.0012 67.2852 38.7114 69.3227 38.1649C71.0369 37.7056 72.7206 37.7657 74.3828 38.4014C75.6634 38.8909 76.4586 39.8253 76.8933 41.0983C76.919 41.1746 76.9374 41.2547 76.9465 41.3345C76.9647 41.4888 76.924 41.5967 76.7381 41.6087C76.008 41.6576 75.2781 41.7114 74.5487 41.7678C74.4148 41.778 74.3093 41.735 74.2219 41.641C74.1203 41.5324 74.0088 41.429 73.9269 41.3064C73.298 40.3673 72.3765 40.0242 71.3009 40.0639C70.308 40.1001 69.4238 40.4463 68.7212 41.1799C68.2348 41.6872 68.0167 42.33 67.85 42.9883C67.5469 44.1848 67.6726 45.347 68.1537 46.484C68.5611 47.4457 69.2592 48.0685 70.2416 48.3864C71.2385 48.7087 72.235 48.7257 73.2258 48.3585C73.5594 48.2352 73.8573 48.0525 74.1274 47.8202C74.4135 47.5738 74.5531 47.2672 74.5345 46.8895C74.5271 46.7402 74.5232 46.5911 74.5161 46.4423C74.4951 46.0286 74.4613 45.9924 74.0306 45.9754C73.4755 45.9538 72.9198 45.9386 72.3644 45.9216C72.2017 45.9166 72.039 45.9189 71.8765 45.9113C71.6167 45.899 71.5332 45.8426 71.4999 45.5869C71.444 45.1552 71.4734 44.7221 71.54 44.2919C71.5763 44.0581 71.7274 43.9376 71.9495 43.9048C72.0828 43.8848 72.2196 43.8825 72.3547 43.882C73.0458 43.8799 73.7374 43.8809 74.429 43.8809V43.8772Z" fill="#142B35"/>
<path fill-rule="evenodd" clip-rule="evenodd" d="M174.915 43.8777C175.62 43.8777 176.325 43.8787 177.03 43.8772C177.603 43.8761 177.722 43.9832 177.707 44.5693C177.679 45.6129 177.682 46.6567 177.693 47.7C177.696 47.9438 177.71 48.1879 177.705 48.4315C177.698 48.7805 177.547 49.0553 177.248 49.2448C175.613 50.2845 173.849 50.9104 171.89 50.8561C170.784 50.8254 169.717 50.5758 168.71 50.1107C167.281 49.4509 166.313 48.3611 165.835 46.8638C165.351 45.3459 165.28 43.7992 165.712 42.2588C166.313 40.1197 167.677 38.7232 169.848 38.1518C171.548 37.7043 173.221 37.7688 174.869 38.4035C176.149 38.8956 176.942 39.8305 177.376 41.1034C177.402 41.1793 177.419 41.2596 177.428 41.3397C177.446 41.4971 177.396 41.5971 177.214 41.6097C176.484 41.658 175.754 41.7118 175.024 41.7683C174.89 41.7785 174.786 41.7302 174.699 41.6376C174.597 41.5289 174.487 41.4247 174.405 41.3019C173.775 40.3636 172.852 40.0294 171.777 40.0628C170.946 40.0882 170.184 40.3554 169.525 40.8788C169.191 41.1439 168.916 41.4628 168.738 41.8491C168.04 43.3646 167.969 44.8911 168.622 46.4512C169.038 47.4483 169.755 48.0868 170.765 48.4031C171.748 48.7112 172.736 48.7257 173.712 48.3564C174.071 48.2212 174.39 48.0238 174.671 47.7598C174.903 47.542 175.015 47.2774 175.015 46.9648C175.015 46.7611 175.006 46.5582 174.993 46.3551C174.973 46.058 174.923 45.9979 174.628 45.9821C174.1 45.9538 173.572 45.9409 173.043 45.9247C172.813 45.917 172.582 45.9037 172.352 45.916C172.13 45.9273 172.013 45.8165 171.987 45.6212C171.926 45.1625 171.947 44.7031 172.034 44.2472C172.073 44.0459 172.21 43.9459 172.397 43.9142C172.542 43.8895 172.693 43.8829 172.841 43.8824C173.532 43.8793 174.224 43.8808 174.915 43.8808V43.8777Z" fill="#142B35"/>
<path fill-rule="evenodd" clip-rule="evenodd" d="M30.3981 44.1574C30.3981 43.9551 30.4102 43.7509 30.3963 43.549C30.2422 41.3294 28.8372 40.2829 27.3097 40.0963C25.6425 39.8924 24.0929 40.8181 23.5601 42.4105C23.4089 42.8624 23.3208 43.328 23.2832 43.7997C23.1982 44.8726 23.346 45.9039 23.8738 46.8616C24.4942 47.9873 25.7197 48.8537 27.3769 48.6004C29.0509 48.3435 29.8181 47.3619 30.1648 46.1243C30.3451 45.4821 30.4146 44.8244 30.3981 44.1574ZM26.921 50.8442C26.064 50.8104 25.2606 50.7358 24.4787 50.4828C22.6719 49.8978 21.4651 48.7049 20.9037 46.9004C20.3749 45.2013 20.3948 43.4766 20.9258 41.7819C21.4914 39.9748 22.7063 38.7774 24.5263 38.2352C26.0102 37.7932 27.5139 37.7507 29.0089 38.1809C30.8992 38.7257 32.1913 39.9436 32.8222 41.7989C33.4403 43.616 33.401 45.4537 32.6947 47.244C31.9188 49.2093 30.4154 50.3059 28.3708 50.7078C27.8771 50.8041 27.3761 50.8143 26.921 50.8442Z" fill="#142B35"/>
<path fill-rule="evenodd" clip-rule="evenodd" d="M134.96 44.3452C134.939 44.0079 134.922 43.6696 134.897 43.3323C134.768 41.578 133.545 40.3098 131.818 40.0961C130.139 39.8885 128.53 40.8799 128.051 42.5064C127.723 43.6197 127.693 44.7465 127.975 45.8764C128.494 47.9504 130.383 49.0803 132.425 48.5097C133.599 48.1811 134.323 47.3588 134.714 46.2302C134.924 45.6215 134.964 44.9859 134.96 44.3452ZM125.053 44.4759C125.082 43.4541 125.182 42.5008 125.516 41.5846C126.098 39.9843 127.176 38.878 128.795 38.3258C130.306 37.8103 131.854 37.7266 133.396 38.1271C135.396 38.6473 136.734 39.9345 137.371 41.8938C137.918 43.5777 137.905 45.2874 137.327 46.9661C136.604 49.0614 135.093 50.2737 132.945 50.6971C131.721 50.938 130.492 50.8908 129.284 50.5551C126.971 49.9123 125.658 48.3585 125.199 46.0373C125.094 45.5037 125.073 44.9614 125.053 44.4759Z" fill="#142B35"/>
<path fill-rule="evenodd" clip-rule="evenodd" d="M107.466 50.7862C106.608 50.8329 105.764 50.761 104.948 50.4673C103.805 50.0558 102.982 49.2986 102.5 48.1826C102.35 47.8361 102.221 47.4779 102.115 47.1154C102.015 46.7687 102.116 46.6031 102.471 46.5206C103.052 46.3852 103.648 46.3469 104.239 46.2755C104.455 46.2495 104.634 46.3603 104.733 46.5647C104.791 46.6868 104.835 46.8154 104.886 46.9406C105.658 48.8193 108.017 49.1915 109.457 48.0555C109.733 47.8382 109.912 47.5537 109.972 47.2059C110.083 46.5626 109.772 46.0511 109.109 45.8322C108.635 45.6752 108.149 45.5548 107.667 45.423C106.951 45.2277 106.228 45.0508 105.517 44.8393C104.731 44.6054 103.982 44.2805 103.426 43.6506C102.499 42.6007 102.303 41.396 102.788 40.0939C103.033 39.4341 103.516 38.9564 104.143 38.6412C106.377 37.5178 108.598 37.5507 110.78 38.7724C111.745 39.3126 112.166 40.2183 112.257 41.2887C112.286 41.622 112.255 41.6301 111.939 41.6769C111.363 41.7614 110.785 41.8244 110.202 41.8414C109.867 41.8511 109.603 41.7173 109.493 41.4052C109.171 40.4916 108.418 40.1994 107.574 40.0693C107.065 39.9903 106.548 40.0123 106.052 40.2021C105.82 40.2903 105.607 40.4034 105.432 40.5769C105.005 40.9981 105.024 41.5312 105.481 41.9183C105.669 42.0771 105.891 42.1761 106.117 42.2711C106.858 42.58 107.647 42.7094 108.419 42.9031C109.18 43.0947 109.938 43.2942 110.646 43.6393C111.593 44.0999 112.271 44.7952 112.533 45.8451C112.728 46.6262 112.713 47.4044 112.478 48.1708C112.264 48.8673 111.83 49.412 111.245 49.8413C110.423 50.4474 109.484 50.7135 108.481 50.7825C108.144 50.8056 107.805 50.7862 107.466 50.7862Z" fill="#142B35"/>
<path fill-rule="evenodd" clip-rule="evenodd" d="M180.018 44.3414C180.018 42.5118 180.017 40.6824 180.018 38.8528C180.018 38.1735 180.107 38.0956 180.799 38.0961C183.441 38.0982 186.084 38.0956 188.727 38.095C188.903 38.095 189.08 38.0879 189.255 38.1032C189.538 38.1284 189.658 38.237 189.663 38.5071C189.671 38.941 189.662 39.3751 189.642 39.8079C189.63 40.0549 189.52 40.164 189.267 40.2136C188.988 40.269 188.703 40.2787 188.418 40.2779C186.832 40.2727 185.247 40.2685 183.661 40.2646C183.566 40.264 183.471 40.2635 183.376 40.2646C182.81 40.2706 182.72 40.3548 182.714 40.9299C182.707 41.4716 182.712 42.0141 182.718 42.5559C182.723 42.9302 182.789 42.9897 183.182 42.9947C184.944 43.0189 186.705 43.0409 188.467 43.0635C188.589 43.0651 188.711 43.0624 188.833 43.069C189.113 43.084 189.131 43.1013 189.145 43.3735C189.165 43.7664 189.183 44.1585 189.196 44.5511C189.209 44.9708 189.123 45.0858 188.707 45.1401C188.317 45.1908 187.923 45.137 187.531 45.1354C186.108 45.1309 184.685 45.1223 183.262 45.1288C182.832 45.1309 182.704 45.2729 182.717 45.7034C182.739 46.4627 182.733 47.2204 182.717 47.9794C182.708 48.4424 182.721 48.449 183.197 48.4537C185.243 48.4752 187.289 48.4983 189.336 48.5101C190.002 48.5136 189.875 48.608 189.887 49.0385C189.898 49.4319 189.919 49.824 189.925 50.2172C189.929 50.5046 189.868 50.5739 189.585 50.613C189.452 50.6314 189.315 50.624 189.18 50.624C186.388 50.6246 183.596 50.6246 180.805 50.6246C180.751 50.6246 180.696 50.6251 180.642 50.6246C180.15 50.6164 180.02 50.4915 180.019 49.9925C180.016 48.1091 180.018 46.2254 180.018 44.3414Z" fill="#142B35"/>
<path fill-rule="evenodd" clip-rule="evenodd" d="M158.678 41.2649C158.649 41.2628 158.62 41.2612 158.591 41.2596C158.463 41.5961 158.336 41.9323 158.207 42.2675C157.832 43.2375 157.453 44.2047 157.085 45.1766C156.959 45.511 157.018 45.59 157.376 45.5934C157.944 45.6003 158.512 45.5955 159.08 45.5955C159.378 45.5955 159.676 45.6016 159.973 45.5929C160.265 45.5848 160.329 45.4919 160.246 45.2115C160.22 45.1213 160.178 45.0352 160.143 44.9475C160.017 44.6349 159.889 44.3221 159.765 44.0089C159.402 43.0945 159.04 42.1793 158.678 41.2649ZM152.232 50.6233C152.185 50.4419 152.27 50.3383 152.313 50.2296C153.875 46.3695 155.44 42.511 157.006 38.6526C157.051 38.5402 157.099 38.4274 157.161 38.3234C157.249 38.1754 157.377 38.0953 157.561 38.0964C158.28 38.1019 158.997 38.1024 159.716 38.0964C159.93 38.0943 160.08 38.1799 160.177 38.3638C160.227 38.4594 160.274 38.5573 160.316 38.6565C161.943 42.5499 163.569 46.443 165.193 50.3367C165.228 50.4199 165.295 50.4994 165.26 50.6233C164.44 50.6233 163.615 50.6238 162.791 50.6233C162.512 50.6228 162.354 50.4915 162.263 50.2183C162.019 49.4868 161.75 48.764 161.488 48.0388C161.349 47.6527 161.308 47.6173 160.9 47.6254C159.409 47.6543 157.919 47.6569 156.429 47.6254C156.045 47.6173 155.995 47.6588 155.869 48.0191C155.611 48.7606 155.351 49.5007 155.105 50.2456C155.02 50.5018 154.862 50.6228 154.6 50.6228C153.814 50.6233 153.029 50.6233 152.232 50.6233Z" fill="#142B35"/>
<path fill-rule="evenodd" clip-rule="evenodd" d="M40.0596 47.0893C40.6386 45.4305 41.2189 43.7736 41.795 42.1158C42.1903 40.9788 42.6115 39.851 42.9729 38.7027C43.1268 38.2138 43.2785 38.1075 43.7997 38.0983C44.247 38.0907 44.6945 38.081 45.1409 38.1004C45.6732 38.1235 45.8073 38.309 45.711 38.8308C45.6517 39.1518 45.5291 39.4537 45.4168 39.7576C44.1721 43.1179 42.926 46.4777 41.6795 49.8381C41.4357 50.4948 41.2388 50.6278 40.5326 50.6255C40.1934 50.6239 39.8549 50.6234 39.516 50.6249C38.7244 50.6283 38.5444 50.5034 38.2533 49.7533C37.6268 48.1397 37.0019 46.525 36.3704 44.9127C35.6751 43.1363 34.9733 41.3633 34.2751 39.588C34.1662 39.3111 34.0591 39.0319 34.0064 38.7382C33.9392 38.3644 34.0796 38.1526 34.4541 38.1132C35.0751 38.0487 35.7001 38.0789 36.3224 38.1127C36.5683 38.1261 36.7515 38.272 36.8434 38.5085C36.9119 38.6844 36.9696 38.8652 37.035 39.0426C37.9929 41.6447 38.9517 44.2463 39.9089 46.8483C39.9415 46.9365 39.9509 47.0355 40.0596 47.0893Z" fill="#142B35"/>
<path fill-rule="evenodd" clip-rule="evenodd" d="M119.127 38.0946C120.564 38.0946 122.001 38.093 123.438 38.0951C124.182 38.0967 124.325 38.2613 124.237 38.988C124.207 39.245 124.231 39.5012 124.247 39.7586C124.27 40.1232 124.147 40.2788 123.788 40.2765C122.962 40.2691 122.135 40.3143 121.309 40.2626C121.241 40.2584 121.174 40.2455 121.106 40.2439C120.638 40.2363 120.456 40.3901 120.439 40.8586C120.425 41.2502 120.46 41.6439 120.459 42.0368C120.459 44.0565 120.452 46.0762 120.45 48.0958C120.45 48.7055 120.461 49.3155 120.461 49.9255C120.462 50.4772 120.326 50.615 119.763 50.6247C119.383 50.6315 119.003 50.6396 118.624 50.6202C118.05 50.5903 117.83 50.3654 117.783 49.7892C117.714 48.9504 117.748 48.1092 117.74 47.2696C117.722 45.3048 117.696 43.3397 117.775 41.3754C117.78 41.24 117.783 41.1038 117.771 40.9689C117.724 40.4374 117.478 40.1867 116.951 40.2379C116.152 40.3158 115.353 40.2547 114.554 40.2799C114.014 40.2969 113.885 40.1702 113.872 39.6243C113.864 39.3269 113.865 39.0277 113.883 38.7308C113.907 38.329 114.053 38.177 114.452 38.1219C114.599 38.1017 114.749 38.1054 114.898 38.1054C116.308 38.1038 117.718 38.1043 119.127 38.1043V38.0946Z" fill="#142B35"/>
<path fill-rule="evenodd" clip-rule="evenodd" d="M49.8742 44.5207C49.8742 46.3083 49.8745 48.0962 49.8737 49.8844C49.8737 49.9791 49.8742 50.0744 49.8635 50.1684C49.8309 50.4487 49.7105 50.6014 49.4273 50.6106C48.8876 50.6282 48.3459 50.6671 47.8076 50.5615C47.4706 50.4959 47.2945 50.3035 47.2265 49.9728C47.1711 49.7038 47.1708 49.4348 47.1708 49.1639C47.1695 46.6989 47.1714 44.2335 47.1693 41.7685C47.1685 40.8742 47.1585 39.9808 47.1562 39.0869C47.1556 38.911 47.1535 38.7331 47.1795 38.5598C47.2197 38.2932 47.3674 38.1286 47.6302 38.1128C48.1564 38.0816 48.6871 38.0569 49.2094 38.1538C49.6249 38.2312 49.7648 38.379 49.8267 38.7926C49.8585 39.0052 49.8572 39.2246 49.8572 39.4409C49.8595 41.1343 49.8585 42.8275 49.8585 44.5207H49.8742Z" fill="#142B35"/>
<path fill-rule="evenodd" clip-rule="evenodd" d="M16.0146 14.7476C16.0146 13.8261 16.013 12.9048 16.0156 11.9836C16.0167 11.6957 16.0227 11.6878 16.3083 11.687C17.2972 11.6833 18.2865 11.6836 19.2754 11.6867C19.5699 11.6878 19.5775 11.6949 19.578 11.9736C19.5804 13.8565 19.5767 15.74 19.583 17.6234C19.5838 17.8336 19.5187 17.9064 19.3059 17.9043C18.3033 17.8961 17.3006 17.9027 16.298 17.8993C16.0222 17.8982 16.0167 17.8906 16.0156 17.5927C16.013 16.6444 16.0146 15.6959 16.0146 14.7476Z" fill="#142B35"/>
</svg>
