<svg width="43" height="35" viewBox="0 0 43 35" fill="none" xmlns="http://www.w3.org/2000/svg">
<path d="M40.9636 3.26881L30.7019 2.16979C30.1419 2.10991 29.4043 2.07976 28.6662 2.07976C27.928 2.07976 27.1904 2.10991 26.6304 2.16979L16.3686 3.26881C16.1864 3.28821 15.9816 3.30358 15.7676 3.31693C14.5718 1.56888 12.5402 0.415527 10.2378 0.415527C8.30638 0.415527 6.57009 1.23202 5.35341 2.52496L2.03586 2.16971C1.96263 2.16156 1.89099 2.15795 1.81977 2.15795C0.801125 2.15803 0 2.94631 0 3.9993V31.1293C0 32.2555 0.915764 33.2751 2.03578 33.3954L12.2976 34.4945C12.8576 34.5544 13.5952 34.5845 14.3333 34.5845C15.0715 34.5845 15.8091 34.5544 16.3691 34.4945L26.6309 33.3954C27.1909 33.3355 27.9285 33.3053 28.6667 33.3053C29.4048 33.3053 30.1424 33.3355 30.7024 33.3954L40.9642 34.4945C41.0375 34.5021 41.1091 34.5057 41.1803 34.5057C42.199 34.5057 43 33.718 43 32.6645V5.53445C42.9993 4.40822 42.0837 3.38907 40.9636 3.26881ZM13.5659 33.0355C13.1492 33.0227 12.7643 33.0001 12.4617 32.9675L2.20064 31.8673C1.85924 31.8309 1.53674 31.4721 1.53674 31.1286V3.99871C1.53674 3.80471 1.64013 3.69318 1.82086 3.69318L1.8736 3.6962L4.32762 3.95933C3.85513 4.85468 3.58436 5.86719 3.58436 6.94261C3.58436 10.1352 8.18619 15.2975 9.1091 16.2999L10.2388 17.5285L11.3684 16.3005C11.7201 15.9191 12.6052 14.9322 13.5659 13.6832V33.0355ZM10.2387 15.2602C10.2387 15.2602 5.11985 9.69797 5.11985 6.94253C5.11985 4.18449 7.41262 1.95118 10.2387 1.95118C13.0653 1.95118 15.3575 4.18457 15.3575 6.94253C15.3575 9.69805 10.2387 15.2602 10.2387 15.2602ZM27.8987 31.7811C27.3664 31.7956 26.8719 31.8238 26.4675 31.8673L16.2053 32.9664C15.9033 32.9986 15.5178 33.0211 15.1017 33.0344V11.4993C16.0962 9.93295 16.8933 8.2683 16.8933 6.94253C16.8933 6.19003 16.7561 5.47028 16.5165 4.79724C16.5216 4.79665 16.5273 4.79623 16.5329 4.79564L26.7951 3.69654C27.0971 3.66429 27.4821 3.64228 27.8987 3.62851V8.62146C25.607 9.95185 24.0595 12.4269 24.0595 15.2611C24.0595 17.5656 26.0748 20.7838 27.8987 23.2255V31.7811ZM25.5953 15.2607C25.5953 11.8669 28.3451 9.11797 31.738 9.11797C35.1303 9.11797 37.8807 11.8668 37.8807 15.2607C37.8807 18.6519 31.738 25.4979 31.738 25.4979C31.738 25.4979 25.5953 18.6519 25.5953 15.2607ZM41.4638 32.6643H41.4638C41.4638 32.8583 41.3604 32.9698 41.1796 32.9698L41.1269 32.9668L30.8657 31.8677C30.4608 31.8242 29.9663 31.7955 29.4339 31.7807V25.1738C29.9499 25.7962 30.3676 26.2703 30.5949 26.5237L31.738 27.7972L32.8806 26.5237C33.9725 25.3074 39.4164 19.0482 39.4164 15.2607C39.4164 11.0269 35.972 7.58249 31.7381 7.58249C30.936 7.58249 30.1625 7.70737 29.4347 7.93673V3.62818C29.8514 3.64153 30.2363 3.66404 30.5388 3.6962L40.8 4.7953C41.1414 4.83217 41.4639 5.19146 41.4639 5.53445V32.6643H41.4638Z" fill="#3A98B2"/>
</svg>
