<svg width="50" height="50" viewBox="0 0 50 50" fill="none" xmlns="http://www.w3.org/2000/svg">
<g clip-path="url(#clip0_1_783)">
<path d="M32.0312 21.0938C31.5992 21.0938 31.25 21.443 31.25 21.875V35.1562C31.25 35.5883 31.5992 35.9375 32.0312 35.9375C32.4633 35.9375 32.8125 35.5883 32.8125 35.1562V21.875C32.8125 21.443 32.4633 21.0938 32.0312 21.0938Z" fill="#3A98B2"/>
<path d="M49.2189 40.625H46.8915C46.4595 40.625 46.1103 40.9742 46.1103 41.4062C46.1103 41.8383 46.4595 42.1875 46.8915 42.1875H49.2189C49.6509 42.1875 50.0001 41.8383 50.0001 41.4062C50.0001 40.9742 49.6509 40.625 49.2189 40.625Z" fill="#3A98B2"/>
<path d="M49.2188 40.625C48.7867 40.625 48.4375 40.9742 48.4375 41.4062V44.5312C48.4375 44.9633 48.7867 45.3125 49.2188 45.3125C49.6508 45.3125 50 44.9633 50 44.5312V41.4062C50 40.9742 49.6508 40.625 49.2188 40.625Z" fill="#3A98B2"/>
<path d="M7.81251 43.75C7.81172 43.75 7.81094 43.75 7.81016 43.75L2.34141 43.7664C1.90938 43.768 1.56094 44.118 1.56251 44.55C1.56407 44.9812 1.91329 45.3289 2.34376 45.3289C2.34454 45.3289 2.34532 45.3289 2.3461 45.3289L7.81485 45.3125C8.24688 45.3109 8.59532 44.9609 8.59376 44.5289C8.59219 44.0977 8.24297 43.75 7.81251 43.75Z" fill="#3A98B2"/>
<path d="M48.4375 36.7188H47.6562C47.2242 36.7188 46.875 37.068 46.875 37.5C46.875 37.932 47.2242 38.2812 47.6562 38.2812H48.4375C48.8695 38.2812 49.2188 37.932 49.2188 37.5C49.2188 37.068 48.8695 36.7188 48.4375 36.7188Z" fill="#3A98B2"/>
<path d="M48.4375 31.25C48.0055 31.25 47.6562 31.5992 47.6562 32.0312V41.4062C47.6562 41.8383 48.0055 42.1875 48.4375 42.1875C48.8695 42.1875 49.2188 41.8383 49.2188 41.4062V32.0312C49.2188 31.5992 48.8695 31.25 48.4375 31.25Z" fill="#3A98B2"/>
<path d="M43.75 21.0938H32.0312C31.5992 21.0938 31.25 21.443 31.25 21.875C31.25 22.307 31.5992 22.6562 32.0312 22.6562H43.75C44.182 22.6562 44.5312 22.307 44.5312 21.875C44.5312 21.443 44.182 21.0938 43.75 21.0938Z" fill="#3A98B2"/>
<path d="M49.1468 31.704L44.4593 21.5478C44.2788 21.1556 43.8155 20.9853 43.4225 21.1658C43.0304 21.3462 42.86 21.8111 43.0405 22.2025L47.728 32.3587C47.86 32.6447 48.1429 32.8126 48.4382 32.8126C48.5475 32.8126 48.6585 32.79 48.7647 32.7408C49.1569 32.5603 49.3272 32.0954 49.1468 31.704Z" fill="#3A98B2"/>
<path d="M2.34375 40.625C1.91172 40.625 1.5625 40.9742 1.5625 41.4062V44.5805C1.5625 45.0125 1.91172 45.3617 2.34375 45.3617C2.77578 45.3617 3.125 45.0117 3.125 44.5805V41.4062C3.125 40.9742 2.77578 40.625 2.34375 40.625Z" fill="#3A98B2"/>
<path d="M0.78125 30.4688C0.349219 30.4688 0 30.818 0 31.25V41.4062C0 41.8383 0.349219 42.1875 0.78125 42.1875C1.21328 42.1875 1.5625 41.8383 1.5625 41.4062V31.25C1.5625 30.818 1.21328 30.4688 0.78125 30.4688Z" fill="#3A98B2"/>
<path d="M32.0312 30.4688H0.78125C0.349219 30.4688 0 30.818 0 31.25C0 31.682 0.349219 32.0312 0.78125 32.0312H32.0312C32.4633 32.0312 32.8125 31.682 32.8125 31.25C32.8125 30.818 32.4633 30.4688 32.0312 30.4688Z" fill="#3A98B2"/>
<path d="M4.6875 40.625H0.78125C0.349219 40.625 0 40.9742 0 41.4062C0 41.8383 0.349219 42.1875 0.78125 42.1875H4.6875C5.11953 42.1875 5.46875 41.8383 5.46875 41.4062C5.46875 40.9742 5.11953 40.625 4.6875 40.625Z" fill="#3A98B2"/>
<path d="M12.5 39.0625C9.48516 39.0625 7.03125 41.5164 7.03125 44.5312C7.03125 47.5461 9.48516 50 12.5 50C15.5148 50 17.9688 47.5461 17.9688 44.5312C17.9688 41.5164 15.5148 39.0625 12.5 39.0625ZM12.5 48.4375C10.3461 48.4375 8.59375 46.6852 8.59375 44.5312C8.59375 42.3773 10.3461 40.625 12.5 40.625C14.6539 40.625 16.4062 42.3773 16.4062 44.5312C16.4062 46.6852 14.6539 48.4375 12.5 48.4375Z" fill="#3A98B2"/>
<path d="M12.5 42.1875C11.2078 42.1875 10.1562 43.2391 10.1562 44.5312C10.1562 45.8234 11.2078 46.875 12.5 46.875C13.7922 46.875 14.8438 45.8234 14.8438 44.5312C14.8438 43.2391 13.7922 42.1875 12.5 42.1875ZM12.5 45.3125C12.0688 45.3125 11.7188 44.9625 11.7188 44.5312C11.7188 44.1 12.0688 43.75 12.5 43.75C12.9313 43.75 13.2812 44.1 13.2812 44.5312C13.2812 44.9625 12.9313 45.3125 12.5 45.3125Z" fill="#3A98B2"/>
<path d="M38.2812 42.1875C36.9891 42.1875 35.9375 43.2391 35.9375 44.5312C35.9375 45.8234 36.9891 46.875 38.2812 46.875C39.5734 46.875 40.625 45.8234 40.625 44.5312C40.625 43.2391 39.5734 42.1875 38.2812 42.1875ZM38.2812 45.3125C37.85 45.3125 37.5 44.9625 37.5 44.5312C37.5 44.1 37.85 43.75 38.2812 43.75C38.7125 43.75 39.0625 44.1 39.0625 44.5312C39.0625 44.9625 38.7125 45.3125 38.2812 45.3125Z" fill="#3A98B2"/>
<path d="M38.2812 39.0625C35.2664 39.0625 32.8125 41.5164 32.8125 44.5312C32.8125 47.5461 35.2664 50 38.2812 50C41.2961 50 43.75 47.5461 43.75 44.5312C43.75 41.5164 41.2961 39.0625 38.2812 39.0625ZM38.2812 48.4375C36.1273 48.4375 34.375 46.6852 34.375 44.5312C34.375 42.3773 36.1273 40.625 38.2812 40.625C40.4352 40.625 42.1875 42.3773 42.1875 44.5312C42.1875 46.6852 40.4352 48.4375 38.2812 48.4375Z" fill="#3A98B2"/>
<path d="M33.6133 43.75H17.1875C16.7555 43.75 16.4062 44.0992 16.4062 44.5312C16.4062 44.9633 16.7555 45.3125 17.1875 45.3125H33.6133C34.0453 45.3125 34.3945 44.9633 34.3945 44.5312C34.3945 44.0992 34.0453 43.75 33.6133 43.75Z" fill="#3A98B2"/>
<path d="M49.2188 43.75H42.9688C42.5367 43.75 42.1875 44.0992 42.1875 44.5312C42.1875 44.9633 42.5367 45.3125 42.9688 45.3125H49.2188C49.6508 45.3125 50 44.9633 50 44.5312C50 44.0992 49.6508 43.75 49.2188 43.75Z" fill="#3A98B2"/>
<path d="M48.4375 31.25H39.0625C38.6305 31.25 38.2812 31.5992 38.2812 32.0312C38.2812 32.4633 38.6305 32.8125 39.0625 32.8125H48.4375C48.8695 32.8125 49.2188 32.4633 49.2188 32.0312C49.2188 31.5992 48.8695 31.25 48.4375 31.25Z" fill="#3A98B2"/>
<path d="M39.0625 31.25C37.7703 31.25 36.7188 30.1984 36.7188 28.9062C36.7188 28.4742 36.3695 28.125 35.9375 28.125C35.5055 28.125 35.1562 28.4742 35.1562 28.9062C35.1562 31.0602 36.9086 32.8125 39.0625 32.8125C39.4945 32.8125 39.8438 32.4633 39.8438 32.0312C39.8438 31.5992 39.4945 31.25 39.0625 31.25Z" fill="#3A98B2"/>
<path d="M35.9375 21.0938C35.5055 21.0938 35.1562 21.443 35.1562 21.875V28.9062C35.1562 29.3383 35.5055 29.6875 35.9375 29.6875C36.3695 29.6875 36.7188 29.3383 36.7188 28.9062V21.875C36.7188 21.443 36.3695 21.0938 35.9375 21.0938Z" fill="#3A98B2"/>
<path d="M34.375 11.7188C33.943 11.7188 33.5938 12.068 33.5938 12.5V15.625C33.5938 16.057 33.943 16.4062 34.375 16.4062C34.807 16.4062 35.1562 16.057 35.1562 15.625V12.5C35.1562 12.068 34.807 11.7188 34.375 11.7188Z" fill="#3A98B2"/>
<path d="M3.90625 13.1694C3.47422 13.1694 3.125 13.5187 3.125 13.9507V31.2499C3.125 31.6819 3.47422 32.0312 3.90625 32.0312C4.33828 32.0312 4.6875 31.6819 4.6875 31.2499V13.9507C4.6875 13.5187 4.33828 13.1694 3.90625 13.1694Z" fill="#3A98B2"/>
<path d="M32.0312 13.1694C31.5992 13.1694 31.25 13.5187 31.25 13.9507V31.2499C31.25 31.6819 31.5992 32.0312 32.0312 32.0312C32.4633 32.0312 32.8125 31.6819 32.8125 31.2499V13.9507C32.8125 13.5187 32.4633 13.1694 32.0312 13.1694Z" fill="#3A98B2"/>
<path d="M34.828 11.8641L18.4218 0.145312C18.1499 -0.0484375 17.7859 -0.0484375 17.514 0.145312L1.10773 11.8641C0.756946 12.1148 0.674914 12.6031 0.926477 12.9539C1.17804 13.3047 1.66632 13.3867 2.01632 13.1352L17.9687 1.74141L33.921 13.1352C34.0585 13.2336 34.2171 13.2812 34.3741 13.2812C34.6187 13.2812 34.8577 13.1672 35.0093 12.9539C35.2608 12.6023 35.1788 12.1141 34.828 11.8641Z" fill="#3A98B2"/>
<path d="M34.828 14.9891L18.4218 3.27031C18.1499 3.07656 17.7859 3.07656 17.514 3.27031L1.10773 14.9891C0.756946 15.2398 0.674914 15.7281 0.926477 16.0789C1.17804 16.4297 1.66632 16.5109 2.01632 16.2602L17.9687 4.86641L33.921 16.2602C34.0585 16.3586 34.2171 16.4062 34.3741 16.4062C34.6187 16.4062 34.8577 16.2922 35.0093 16.0789C35.2608 15.7273 35.1788 15.2391 34.828 14.9891Z" fill="#3A98B2"/>
<path d="M1.5625 11.7188C1.13047 11.7188 0.78125 12.068 0.78125 12.5V15.625C0.78125 16.057 1.13047 16.4062 1.5625 16.4062C1.99453 16.4062 2.34375 16.057 2.34375 15.625V12.5C2.34375 12.068 1.99453 11.7188 1.5625 11.7188Z" fill="#3A98B2"/>
<path d="M20.3125 21.0938C19.8805 21.0938 19.5312 21.443 19.5312 21.875V31.25C19.5312 31.682 19.8805 32.0312 20.3125 32.0312C20.7445 32.0312 21.0938 31.682 21.0938 31.25V21.875C21.0938 21.443 20.7445 21.0938 20.3125 21.0938Z" fill="#3A98B2"/>
<path d="M20.3125 21.0938H15.625C15.193 21.0938 14.8438 21.443 14.8438 21.875C14.8438 22.307 15.193 22.6562 15.625 22.6562H20.3125C20.7445 22.6562 21.0938 22.307 21.0938 21.875C21.0938 21.443 20.7445 21.0938 20.3125 21.0938Z" fill="#3A98B2"/>
<path d="M15.625 21.0938C15.193 21.0938 14.8438 21.443 14.8438 21.875V31.25C14.8438 31.682 15.193 32.0312 15.625 32.0312C16.057 32.0312 16.4062 31.682 16.4062 31.25V21.875C16.4062 21.443 16.057 21.0938 15.625 21.0938Z" fill="#3A98B2"/>
<path d="M12.5 17.1875H7.03125C6.59922 17.1875 6.25 17.5367 6.25 17.9688V23.4375C6.25 23.8695 6.59922 24.2188 7.03125 24.2188H12.5C12.932 24.2188 13.2812 23.8695 13.2812 23.4375V17.9688C13.2812 17.5367 12.932 17.1875 12.5 17.1875ZM11.7188 22.6562H7.8125V18.75H11.7188V22.6562Z" fill="#3A98B2"/>
<path d="M28.9062 17.1875H23.4375C23.0055 17.1875 22.6562 17.5367 22.6562 17.9688V23.4375C22.6562 23.8695 23.0055 24.2188 23.4375 24.2188H28.9062C29.3383 24.2188 29.6875 23.8695 29.6875 23.4375V17.9688C29.6875 17.5367 29.3383 17.1875 28.9062 17.1875ZM28.125 22.6562H24.2188V18.75H28.125V22.6562Z" fill="#3A98B2"/>
<path d="M17.9688 10.1562C16.2453 10.1562 14.8438 11.5578 14.8438 13.2812C14.8438 15.0047 16.2453 16.4062 17.9688 16.4062C19.6922 16.4062 21.0938 15.0047 21.0938 13.2812C21.0938 11.5578 19.6922 10.1562 17.9688 10.1562ZM17.9688 14.8438C17.107 14.8438 16.4062 14.143 16.4062 13.2812C16.4062 12.4195 17.107 11.7188 17.9688 11.7188C18.8305 11.7188 19.5312 12.4195 19.5312 13.2812C19.5312 14.143 18.8305 14.8438 17.9688 14.8438Z" fill="#3A98B2"/>
</g>
<defs>
<clipPath id="clip0_1_783">
<rect width="50" height="50" fill="white"/>
</clipPath>
</defs>
</svg>
