<svg width="50" height="50" viewBox="0 0 50 50" fill="none" xmlns="http://www.w3.org/2000/svg">
<g clip-path="url(#clip0_1_917)">
<path d="M49.5884 14.2822L25.4217 0.115535C25.1675 -0.0328051 24.855 -0.0377855 24.5976 0.104695L0.430859 13.4381C0.165039 13.5839 0 13.8639 0 14.1672V49.1672C0 49.628 0.37334 50.0005 0.833301 50.0005H5C5.45996 50.0005 5.8333 49.628 5.8333 49.1672V20.0006H44.1666V49.1673C44.1666 49.6281 44.5391 50.0006 44.9999 50.0006H49.1666C49.6274 50.0006 49.9999 49.6281 49.9999 49.1673V15.0006C50 14.7047 49.8434 14.4314 49.5884 14.2822ZM48.3333 48.3339H45.8333V19.1672C45.8333 18.7072 45.4608 18.3339 45 18.3339H5C4.54004 18.3339 4.1667 18.7072 4.1667 19.1672V48.3339H1.6667V14.6589L24.9875 1.79219L48.3333 15.478V48.3339Z" fill="#3A98B2"/>
<path d="M41.6668 38.333H31.6668C31.2059 38.333 30.8335 38.7055 30.8335 39.1663V49.1663C30.8335 49.6271 31.2059 49.9996 31.6668 49.9996H41.6668C42.1276 49.9996 42.5001 49.6271 42.5001 49.1663V39.1663C42.5001 38.7055 42.1276 38.333 41.6668 38.333ZM40.8334 48.333H32.5001V39.9997H40.8334V48.333Z" fill="#3A98B2"/>
<path d="M37.5 39.1665V41.6665H35.8333V39.1665H34.1666V42.4998C34.1666 42.9606 34.539 43.3331 34.9999 43.3331H38.3332C38.794 43.3331 39.1665 42.9606 39.1665 42.4998V39.1665H37.5Z" fill="#3A98B2"/>
<path d="M31.6668 38.333H21.6668C21.2068 38.333 20.8335 38.7055 20.8335 39.1663V49.1663C20.8335 49.6271 21.2068 49.9996 21.6668 49.9996H31.6668C32.1276 49.9996 32.5001 49.6271 32.5001 49.1663V39.1663C32.5001 38.7055 32.1276 38.333 31.6668 38.333ZM30.8334 48.333H22.5001V39.9997H30.8334V48.333Z" fill="#3A98B2"/>
<path d="M27.5 39.1665V41.6665H25.8333V39.1665H24.1666V42.4998C24.1666 42.9606 24.5399 43.3331 24.9999 43.3331H28.3332C28.794 43.3331 29.1665 42.9606 29.1665 42.4998V39.1665H27.5Z" fill="#3A98B2"/>
<path d="M41.6668 28.333H31.6668C31.2059 28.333 30.8335 28.7055 30.8335 29.1663V39.1663C30.8335 39.6271 31.2059 39.9996 31.6668 39.9996H41.6668C42.1276 39.9996 42.5001 39.6271 42.5001 39.1663V29.1663C42.5001 28.7055 42.1276 28.333 41.6668 28.333ZM40.8334 38.333H32.5001V29.9997H40.8334V38.333Z" fill="#3A98B2"/>
<path d="M37.5 29.1665V31.6665H35.8333V29.1665H34.1666V32.4998C34.1666 32.9606 34.539 33.3331 34.9999 33.3331H38.3332C38.794 33.3331 39.1665 32.9606 39.1665 32.4998V29.1665H37.5Z" fill="#3A98B2"/>
<path d="M45.0001 24.9998H5.00006V26.6665H45.0001V24.9998Z" fill="#3A98B2"/>
<path d="M45.0001 21.6665H5.00006V23.3332H45.0001V21.6665Z" fill="#3A98B2"/>
<path d="M29.1667 11.6663H20.8334C20.3734 11.6663 20.0001 12.0396 20.0001 12.4996V15.8329C20.0001 16.2928 20.3734 16.6662 20.8334 16.6662H29.1667C29.6275 16.6662 30 16.2928 30 15.8329V12.4996C30 12.0396 29.6275 11.6663 29.1667 11.6663ZM28.3333 14.9997H21.6666V13.333H28.3333V14.9997Z" fill="#3A98B2"/>
</g>
<defs>
<clipPath id="clip0_1_917">
<rect width="50" height="50" fill="white"/>
</clipPath>
</defs>
</svg>
